<?xml version="1.0" encoding="utf-8"?>
<!-- Generator: Adobe Illustrator 27.1.1, SVG Export Plug-In . SVG Version: 6.00 Build 0)  -->
<svg version="1.1" id="Layer_1" xmlns="http://www.w3.org/2000/svg" xmlns:xlink="http://www.w3.org/1999/xlink" x="0px" y="0px"
	 viewBox="0 0 30 30" style="enable-background:new 0 0 30 30;" xml:space="preserve">
<style type="text/css">
	.st0{fill:#6613FF;}
</style>
<g>
	<path class="st0" d="M11.1,21.4h-8l-2.2,6h7.9c0.7,0,1.4-0.5,1.7-1.2l0.4-1.2c0.2-0.7,0.9-1.1,1.6-1.1l5.5,0c2.2,0,4.1-0.4,5.7-1.3
		c1.7-0.9,3-2.2,3.9-3.8c0,0,0,0,0,0l-13.4,0c-0.7,0-1.3,0.4-1.5,1.1l-0.2,0.4C12.4,21,11.8,21.4,11.1,21.4z"/>
	<path class="st0" d="M28.7,10.3H16.1c-0.7,0-1.3,0.4-1.5,1.1l-0.2,0.4c-0.2,0.6-0.8,1.1-1.5,1.1H6.3l-2.2,6h6.5
		c0.7,0,1.4-0.5,1.7-1.2l0.1-0.3c0.2-0.7,0.9-1.1,1.6-1.1h14.7c0.2-0.9,0.3-1.9,0.3-3C29,12.2,28.9,11.2,28.7,10.3z"/>
	<path class="st0" d="M14.1,8.8c0.2-0.7,0.9-1.1,1.6-1.1h12c0,0,0,0,0,0c-0.9-1.6-2.2-2.9-3.9-3.8c-1.7-0.9-3.6-1.3-5.7-1.3h-0.6
		c-0.7,0-1.3,0.4-1.5,1.1l-0.2,0.4c-0.2,0.6-0.8,1.1-1.5,1.1H9.1l-1.9,5.1h5.2c0.7,0,1.4-0.5,1.7-1.2L14.1,8.8z"/>
</g>
</svg>
